<svg width="162" height="162" fill="none" xmlns="http://www.w3.org/2000/svg"><g opacity=".5" clip-path="url(#a)" fill="#6F1DF4"><path d="M2.978 5.956a2.978 2.978 0 1 0 0-5.956 2.978 2.978 0 0 0 0 5.956zM2.978 31.911a2.978 2.978 0 1 0 0-5.955 2.978 2.978 0 0 0 0 5.955zM2.978 83.822a2.978 2.978 0 1 0 0-5.955 2.978 2.978 0 0 0 0 5.955zM2.978 135.734a2.978 2.978 0 1 0 0-5.955 2.978 2.978 0 0 0 0 5.955zM2.978 161.689a2.978 2.978 0 1 0 0-5.955 2.978 2.978 0 0 0 0 5.955zM2.978 57.867a2.978 2.978 0 1 0 0-5.956 2.978 2.978 0 0 0 0 5.956zM2.978 109.778a2.978 2.978 0 1 0 0-5.955 2.978 2.978 0 0 0 0 5.955zM28.934 5.956a2.978 2.978 0 1 0 0-5.956 2.978 2.978 0 0 0 0 5.956zM28.934 31.911a2.978 2.978 0 1 0 0-5.956 2.978 2.978 0 0 0 0 5.956zM28.934 83.822a2.978 2.978 0 1 0 0-5.955 2.978 2.978 0 0 0 0 5.955zM28.934 135.734a2.978 2.978 0 1 0 0-5.956 2.978 2.978 0 0 0 0 5.956zM28.934 161.689a2.978 2.978 0 1 0 0-5.956 2.978 2.978 0 0 0 0 5.956zM28.934 57.867a2.978 2.978 0 1 0 0-5.956 2.978 2.978 0 0 0 0 5.956zM28.934 109.778a2.978 2.978 0 1 0 0-5.956 2.978 2.978 0 0 0 0 5.956zM54.889 5.956a2.978 2.978 0 1 0 0-5.956 2.978 2.978 0 0 0 0 5.956zM54.889 31.911a2.978 2.978 0 1 0 0-5.955 2.978 2.978 0 0 0 0 5.955zM54.889 83.822a2.978 2.978 0 1 0 0-5.955 2.978 2.978 0 0 0 0 5.955zM54.889 135.734a2.978 2.978 0 1 0 0-5.955 2.978 2.978 0 0 0 0 5.955zM54.889 161.689a2.978 2.978 0 1 0 0-5.955 2.978 2.978 0 0 0 0 5.955zM54.889 57.867a2.978 2.978 0 1 0 0-5.956 2.978 2.978 0 0 0 0 5.956zM54.889 109.778a2.978 2.978 0 1 0 0-5.955 2.978 2.978 0 0 0 0 5.955zM80.845 5.956a2.978 2.978 0 1 0 0-5.956 2.978 2.978 0 0 0 0 5.956zM80.845 31.911a2.978 2.978 0 1 0 0-5.955 2.978 2.978 0 0 0 0 5.955zM80.845 83.822a2.978 2.978 0 1 0 0-5.955 2.978 2.978 0 0 0 0 5.955zM80.845 135.734a2.978 2.978 0 1 0 0-5.955 2.978 2.978 0 0 0 0 5.955zM80.845 161.689a2.978 2.978 0 1 0 0-5.955 2.978 2.978 0 0 0 0 5.955zM80.845 57.867a2.978 2.978 0 1 0 0-5.956 2.978 2.978 0 0 0 0 5.956zM80.845 109.778a2.978 2.978 0 1 0 0-5.955 2.978 2.978 0 0 0 0 5.955zM106.8 5.956a2.978 2.978 0 1 0 0-5.956 2.978 2.978 0 0 0 0 5.956zM106.8 31.911a2.978 2.978 0 1 0 0-5.955 2.978 2.978 0 0 0 0 5.955zM106.8 83.822a2.978 2.978 0 1 0 0-5.955 2.978 2.978 0 0 0 0 5.955zM106.8 135.734a2.978 2.978 0 1 0 0-5.955 2.978 2.978 0 0 0 0 5.955zM106.8 161.689a2.978 2.978 0 1 0 0-5.955 2.978 2.978 0 0 0 0 5.955zM106.8 57.867a2.978 2.978 0 1 0 0-5.956 2.978 2.978 0 0 0 0 5.956zM106.8 109.778a2.978 2.978 0 1 0 0-5.955 2.978 2.978 0 0 0 0 5.955zM132.756 5.956a2.978 2.978 0 1 0 0-5.956 2.978 2.978 0 0 0 0 5.956zM132.756 31.911a2.978 2.978 0 1 0 0-5.955 2.978 2.978 0 0 0 0 5.955zM132.756 83.822a2.978 2.978 0 1 0 0-5.955 2.978 2.978 0 0 0 0 5.955zM132.756 135.734a2.978 2.978 0 1 0 0-5.955 2.978 2.978 0 0 0 0 5.955zM132.756 161.689a2.978 2.978 0 1 0 0-5.955 2.978 2.978 0 0 0 0 5.955zM132.756 57.867a2.978 2.978 0 1 0 0-5.956 2.978 2.978 0 0 0 0 5.956zM132.756 109.778a2.978 2.978 0 1 0 0-5.955 2.978 2.978 0 0 0 0 5.955zM158.711 5.956a2.978 2.978 0 1 0 0-5.956 2.978 2.978 0 0 0 0 5.956zM158.711 31.911a2.978 2.978 0 1 0 0-5.955 2.978 2.978 0 0 0 0 5.955zM158.711 83.822a2.978 2.978 0 1 0 0-5.955 2.978 2.978 0 0 0 0 5.955zM158.711 135.734a2.978 2.978 0 1 0 0-5.955 2.978 2.978 0 0 0 0 5.955zM158.711 161.689a2.978 2.978 0 1 0 0-5.955 2.978 2.978 0 0 0 0 5.955zM158.711 57.867a2.978 2.978 0 1 0 0-5.956 2.978 2.978 0 0 0 0 5.956zM158.711 109.778a2.978 2.978 0 1 0 0-5.955 2.978 2.978 0 0 0 0 5.955z"/></g><defs><clipPath id="a"><path fill="#fff" d="M0 0h162v162H0z"/></clipPath></defs></svg>